<svg width="26" height="22" viewBox="0 0 26 22" fill="none" xmlns="http://www.w3.org/2000/svg">
<path fill-rule="evenodd" clip-rule="evenodd" d="M-4.7818e-07 11.0605C-4.96294e-07 10.6461 0.16462 10.2487 0.457645 9.95567C0.750671 9.66264 1.1481 9.49802 1.5625 9.49802L19.6656 9.49802L12.9562 2.79177C12.811 2.6465 12.6957 2.47403 12.6171 2.28422C12.5385 2.09441 12.498 1.89097 12.498 1.68552C12.498 1.48007 12.5385 1.27664 12.6171 1.08682C12.6957 0.897014 12.811 0.724548 12.9562 0.579273C13.1015 0.433998 13.274 0.318759 13.4638 0.240138C13.6536 0.161516 13.857 0.121051 14.0625 0.121051C14.2679 0.121051 14.4714 0.161516 14.6612 0.240138C14.851 0.318759 15.0235 0.433997 15.1687 0.579273L24.5438 9.95427C24.6893 10.0994 24.8047 10.2718 24.8835 10.4617C24.9622 10.6515 25.0028 10.855 25.0028 11.0605C25.0028 11.266 24.9622 11.4695 24.8835 11.6594C24.8047 11.8492 24.6893 12.0216 24.5438 12.1668L15.1688 21.5418C15.0235 21.6871 14.851 21.8023 14.6612 21.8809C14.4714 21.9595 14.268 22 14.0625 22C13.857 22 13.6536 21.9595 13.4638 21.8809C13.274 21.8023 13.1015 21.6871 12.9562 21.5418C12.6629 21.2484 12.498 20.8504 12.498 20.4355C12.498 20.2301 12.5385 20.0266 12.6171 19.8368C12.6957 19.647 12.811 19.4745 12.9562 19.3293L19.6656 12.623L1.5625 12.623C1.1481 12.623 0.750671 12.4584 0.457646 12.1654C0.16462 11.8724 -4.60066e-07 11.4749 -4.7818e-07 11.0605Z" fill="black"/>
</svg>
