<svg width="1331" height="883" viewBox="0 0 1331 883" fill="none" xmlns="http://www.w3.org/2000/svg">
<g opacity="0.2">
<path opacity="0.1" d="M328.874 777.695C328.874 790.354 323.216 801.382 311.9 810.78C300.584 819.986 283.802 824.589 261.554 824.589C235.47 824.589 216.674 820.37 205.166 811.931C193.658 803.3 187.905 789.011 187.905 769.065H231.346C231.346 776.545 233.456 782.298 237.675 786.326C242.087 790.162 249.567 792.08 260.115 792.08C276.226 792.08 284.282 787.477 284.282 778.271C284.282 774.243 281.021 771.078 274.5 768.777C268.171 766.284 260.403 764.27 251.197 762.735C241.991 761.009 232.689 758.899 223.291 756.406C214.085 753.913 206.221 749.597 199.7 743.46C193.371 737.322 190.206 729.459 190.206 719.869C190.206 705.868 195.768 694.552 206.892 685.921C218.016 677.099 234.99 672.688 257.814 672.688C281.98 672.688 298.954 677.003 308.736 685.634C318.709 694.073 323.696 707.402 323.696 725.623H282.268C282.268 711.43 274.117 704.334 257.814 704.334C242.854 704.334 235.374 708.649 235.374 717.28C235.374 721.308 238.539 724.472 244.868 726.774C251.389 729.075 259.252 730.993 268.459 732.528C277.665 734.062 286.775 736.172 295.789 738.857C304.996 741.542 312.763 746.145 319.092 752.666C325.613 759.187 328.874 767.53 328.874 777.695ZM490.288 675.277V822.288C490.288 828.617 489.808 834.371 488.849 839.549C487.89 844.92 485.876 850.29 482.808 855.66C479.739 861.222 475.615 865.825 470.437 869.469C465.45 873.113 458.545 876.086 449.723 878.388C441.092 880.881 430.927 882.128 419.227 882.128C400.815 882.128 386.335 880.21 375.786 876.374C365.237 872.73 358.045 867.647 354.209 861.126C350.565 854.605 348.743 845.974 348.743 835.234H393.623C393.815 837.919 394.102 840.029 394.486 841.563C395.061 843.289 396.116 845.111 397.651 847.029C399.377 848.947 402.062 850.29 405.706 851.057C409.35 852.016 414.049 852.495 419.803 852.495C436.873 852.495 445.408 843.577 445.408 825.74V806.465C437.352 818.548 424.502 824.589 406.857 824.589C394.965 824.589 385.088 823.055 377.224 819.986C369.553 816.726 363.799 811.931 359.963 805.602C356.127 799.08 353.538 792.176 352.195 784.888C350.853 777.408 350.181 768.106 350.181 756.981V675.277H395.061V758.708C395.061 769.448 396.596 776.928 399.664 781.148C402.925 785.175 409.542 787.189 419.515 787.189C429.489 787.189 436.201 784.984 439.654 780.572C443.298 775.969 445.12 768.201 445.12 757.269L445.408 675.277H490.288ZM652.809 777.695C652.809 790.354 647.151 801.382 635.835 810.78C624.519 819.986 607.737 824.589 585.489 824.589C559.405 824.589 540.609 820.37 529.101 811.931C517.594 803.3 511.84 789.011 511.84 769.065H555.281C555.281 776.545 557.391 782.298 561.611 786.326C566.022 790.162 573.502 792.08 584.051 792.08C600.161 792.08 608.217 787.477 608.217 778.271C608.217 774.243 604.956 771.078 598.435 768.777C592.106 766.284 584.338 764.27 575.132 762.735C565.926 761.009 556.624 758.899 547.226 756.406C538.02 753.913 530.156 749.597 523.635 743.46C517.306 737.322 514.141 729.459 514.141 719.869C514.141 705.868 519.703 694.552 530.827 685.921C541.952 677.099 558.925 672.688 581.749 672.688C605.915 672.688 622.889 677.003 632.671 685.634C642.644 694.073 647.631 707.402 647.631 725.623H606.203C606.203 711.43 598.052 704.334 581.749 704.334C566.789 704.334 559.309 708.649 559.309 717.28C559.309 721.308 562.474 724.472 568.803 726.774C575.324 729.075 583.188 730.993 592.394 732.528C601.6 734.062 610.71 736.172 619.725 738.857C628.931 741.542 636.698 746.145 643.028 752.666C649.549 759.187 652.809 767.53 652.809 777.695ZM768.48 823.151C746.423 824.685 729.449 824.014 717.558 821.137C705.858 818.26 697.707 813.273 693.104 806.177C688.693 798.889 686.487 788.34 686.487 774.531V711.238H663.472V686.784L686.487 675.277V637.877H731.08V675.277H768.48V711.238H732.23V769.928C732.23 774.339 732.806 777.791 733.956 780.285C735.299 782.778 738.751 784.792 744.313 786.326C749.875 787.86 757.931 788.052 768.48 786.901V823.151ZM925.191 777.695C923.849 791.888 917.232 803.3 905.34 811.931C893.449 820.37 876.763 824.589 855.282 824.589C804.456 824.589 779.043 799.272 779.043 748.638C779.043 740.583 779.715 733.103 781.057 726.198C782.4 719.102 784.797 712.197 788.249 705.484C791.702 698.772 796.209 693.114 801.771 688.511C807.333 683.716 814.525 679.88 823.348 677.003C832.362 674.126 842.719 672.688 854.419 672.688C867.844 672.688 879.352 674.893 888.942 679.304C898.532 683.524 905.82 689.47 910.807 697.141C915.985 704.813 919.629 712.964 921.739 721.595C923.849 730.226 924.903 739.72 924.903 750.077C924.903 755.831 924.712 760.146 924.328 763.023H824.211C824.595 782.97 834.28 792.943 853.268 792.943C867.844 792.943 876.187 787.86 878.297 777.695H925.191ZM878.297 732.528C878.297 714.499 869.571 705.484 852.117 705.484C835.431 705.484 826.225 714.499 824.499 732.528H878.297ZM1156.62 822H1110.88V732.815C1110.88 725.719 1109.63 720.253 1107.14 716.417C1104.83 712.581 1100.23 710.663 1093.33 710.663C1086.23 710.663 1081.44 712.677 1078.94 716.704C1076.45 720.54 1075.2 725.911 1075.2 732.815V822H1030.03V732.815C1030.03 725.719 1028.79 720.253 1026.29 716.417C1023.99 712.581 1019.29 710.663 1012.2 710.663C999.731 710.663 993.498 718.047 993.498 732.815V822H948.618V675.277H969.044L979.689 695.128C988.128 680.168 1003.09 672.688 1024.57 672.688C1044.32 672.688 1058.42 679.784 1066.86 693.977C1069.93 688.798 1074.91 684.003 1081.82 679.592C1088.72 674.989 1097.64 672.688 1108.57 672.688C1116.63 672.688 1123.54 673.838 1129.29 676.14C1135.23 678.25 1139.93 681.127 1143.39 684.771C1146.84 688.223 1149.52 692.73 1151.44 698.292C1153.55 703.662 1154.89 709.129 1155.47 714.691C1156.24 720.061 1156.62 726.39 1156.62 733.678V822ZM1316.97 777.695C1316.97 790.354 1311.32 801.382 1300 810.78C1288.68 819.986 1271.9 824.589 1249.65 824.589C1223.57 824.589 1204.77 820.37 1193.27 811.931C1181.76 803.3 1176.01 789.011 1176.01 769.065H1219.45C1219.45 776.545 1221.56 782.298 1225.78 786.326C1230.19 790.162 1237.67 792.08 1248.22 792.08C1264.33 792.08 1272.38 787.477 1272.38 778.271C1272.38 774.243 1269.12 771.078 1262.6 768.777C1256.27 766.284 1248.5 764.27 1239.3 762.735C1230.09 761.009 1220.79 758.899 1211.39 756.406C1202.19 753.913 1194.32 749.597 1187.8 743.46C1181.47 737.322 1178.31 729.459 1178.31 719.869C1178.31 705.868 1183.87 694.552 1194.99 685.921C1206.12 677.099 1223.09 672.688 1245.91 672.688C1270.08 672.688 1287.05 677.003 1296.84 685.634C1306.81 694.073 1311.8 707.402 1311.8 725.623H1270.37C1270.37 711.43 1262.22 704.334 1245.91 704.334C1230.95 704.334 1223.47 708.649 1223.47 717.28C1223.47 721.308 1226.64 724.472 1232.97 726.774C1239.49 729.075 1247.35 730.993 1256.56 732.528C1265.77 734.062 1274.88 736.172 1283.89 738.857C1293.1 741.542 1300.86 746.145 1307.19 752.666C1313.71 759.187 1316.97 767.53 1316.97 777.695ZM1448.36 822H1403.48V618.601H1448.36V822ZM1522.81 822H1477.93V618.601H1522.81V822ZM1644.73 761.585H1689.9C1689.9 781.531 1684.14 797.067 1672.63 808.191C1661.32 819.123 1644.15 824.589 1621.14 824.589C1606.75 824.589 1594.38 822.479 1584.03 818.26C1573.86 814.041 1566 808.287 1560.43 800.998C1555.06 793.518 1551.23 785.559 1548.93 777.12C1546.63 768.489 1545.47 758.995 1545.47 748.638C1545.47 738.281 1546.63 728.883 1548.93 720.444C1551.42 711.814 1555.35 703.854 1560.72 696.566C1566.09 689.086 1573.76 683.236 1583.74 679.017C1593.9 674.797 1606.08 672.688 1620.27 672.688C1643.29 672.688 1660.65 678.25 1672.35 689.374C1684.05 700.498 1689.9 716.033 1689.9 735.98H1644.73C1643.96 726.582 1641.66 719.965 1637.82 716.129C1633.99 712.101 1627.85 710.088 1619.41 710.088C1608.48 710.088 1600.81 713.252 1596.4 719.581C1592.18 725.719 1590.07 735.309 1590.07 748.351C1590.07 761.585 1592.18 771.366 1596.4 777.695C1600.62 784.025 1608.29 787.189 1619.41 787.189C1627.85 787.189 1633.89 785.175 1637.54 781.148C1641.37 777.12 1643.77 770.599 1644.73 761.585Z" fill="#22252B"/>
<path opacity="0.1" d="M342.605 369H254.047L235.814 311.698H107.665L89.4326 369H0.874419L118.605 35.6046H224.874L342.605 369ZM217.581 249.707L171.219 109.056L125.898 249.707H217.581ZM627.842 185.633C631.315 200.913 633.052 217.583 633.052 235.642C633.052 253.701 630.968 270.544 626.801 286.172C622.98 301.8 616.729 316.386 608.047 329.93C599.712 343.474 587.731 354.24 572.103 362.228C556.822 369.868 538.59 373.688 517.405 373.688C493.79 373.688 473.821 369.174 457.498 360.144C441.523 351.115 429.715 340.175 422.075 327.326L402.28 369H365.815V0.702314H446.559V128.851C462.187 108.709 488.754 98.6372 526.261 98.6372C546.056 98.6372 563.073 102.457 577.312 110.098C591.898 117.738 603.011 128.33 610.652 141.874C618.639 155.419 624.37 170.005 627.842 185.633ZM549.703 235.642C549.703 212.374 546.23 194.836 539.284 183.028C532.339 171.22 518.621 165.316 498.131 165.316C476.946 165.316 462.881 171.22 455.935 183.028C449.337 194.488 446.038 212.026 446.038 235.642C446.038 259.605 449.511 277.49 456.456 289.298C463.749 300.758 477.815 306.488 498.652 306.488C518.794 306.488 532.339 300.584 539.284 288.777C546.23 276.969 549.703 259.257 549.703 235.642ZM937.653 185.633C941.126 200.913 942.863 217.583 942.863 235.642C942.863 253.701 940.779 270.544 936.612 286.172C932.791 301.8 926.54 316.386 917.858 329.93C909.523 343.474 897.542 354.24 881.914 362.228C866.633 369.868 848.401 373.688 827.216 373.688C803.601 373.688 783.632 369.174 767.309 360.144C751.334 351.115 739.526 340.175 731.886 327.326L712.091 369H675.626V0.702314H756.37V128.851C771.998 108.709 798.565 98.6372 836.072 98.6372C855.867 98.6372 872.884 102.457 887.123 110.098C901.709 117.738 912.822 128.33 920.463 141.874C928.45 155.419 934.181 170.005 937.653 185.633ZM859.514 235.642C859.514 212.374 856.041 194.836 849.095 183.028C842.15 171.22 828.432 165.316 807.942 165.316C786.757 165.316 772.692 171.22 765.746 183.028C759.148 194.488 755.849 212.026 755.849 235.642C755.849 259.605 759.322 277.49 766.267 289.298C773.56 300.758 787.626 306.488 808.463 306.488C828.605 306.488 842.15 300.584 849.095 288.777C856.041 276.969 859.514 259.257 859.514 235.642ZM1233.4 369H1196.93L1177.66 327.326C1158.91 358.234 1127.48 373.688 1083.37 373.688C1050.38 373.688 1023.64 366.743 1003.15 352.851C983.006 338.96 972.934 318.643 972.934 291.902C972.934 266.898 981.616 248.318 998.981 236.163C1016.35 224.008 1044.13 215.847 1082.33 211.679L1152.13 204.386C1152.13 188.411 1148.49 176.603 1141.19 168.963C1134.25 161.322 1122.27 157.502 1105.25 157.502C1076.77 157.502 1062.53 169.831 1062.53 194.488H983.353C983.353 163.233 991.861 139.443 1008.88 123.121C1026.24 106.798 1057.67 98.6372 1103.17 98.6372C1130.6 98.6372 1153.18 101.589 1170.89 107.493C1188.95 113.05 1202.32 121.732 1211 133.54C1219.68 145 1225.59 157.329 1228.71 170.526C1231.84 183.375 1233.4 199.35 1233.4 218.451V369ZM1152.13 257.521L1100.04 263.772C1071.91 266.55 1057.85 274.885 1057.85 288.777C1057.85 307.183 1071.91 316.386 1100.04 316.386C1117.41 316.386 1130.26 311.003 1138.59 300.237C1147.27 289.471 1151.79 275.233 1152.13 257.521ZM382.716 689H286.344L256.13 654.619C229.042 680.665 196.571 693.688 158.716 693.688C115.653 693.688 83.5287 683.443 62.3442 662.953C41.1597 642.464 30.5674 616.591 30.5674 585.335C30.5674 561.719 38.2078 542.445 53.4884 527.512C69.1163 512.578 87.5225 501.986 108.707 495.735L48.2791 435.828V355.605H278.53V425.409H139.442L241.023 540.014C243.107 528.206 244.149 504.07 244.149 467.605H324.372C324.372 514.488 315.516 557.899 297.805 597.837L382.716 689ZM208.205 607.735L153.507 549.912C140.31 551.995 130.239 556.336 123.293 562.935C116.695 569.533 113.395 577.347 113.395 586.377C113.395 611.381 127.981 623.884 157.153 623.884C179.033 623.884 196.05 618.501 208.205 607.735ZM781.562 689H674.25L597.152 576.479V689H515.887V320.702H597.152V524.386L668.52 423.326H775.831L661.227 548.349L781.562 689ZM881.999 689H800.213V423.326H881.999V689ZM893.981 353C893.981 369.67 889.466 381.13 880.437 387.381C871.407 393.633 858.384 396.758 841.367 396.758C823.655 396.758 810.111 393.806 800.734 387.902C791.705 381.651 787.19 370.017 787.19 353C787.19 335.983 791.705 324.522 800.734 318.619C810.111 312.367 823.655 309.242 841.367 309.242C858.731 309.242 871.754 312.367 880.437 318.619C889.466 324.522 893.981 335.983 893.981 353ZM1186.23 689H1104.45V539.493C1104.45 520.045 1101.5 506.327 1095.59 498.34C1089.69 490.352 1077.88 486.358 1060.17 486.358C1043.15 486.358 1031 490.699 1023.7 499.381C1016.76 508.064 1013.29 521.434 1013.29 539.493V689H932.021V423.326H969.007L988.281 459.791C995.574 447.636 1007.03 437.738 1022.66 430.098C1038.64 422.457 1058.43 418.637 1082.05 418.637C1103.23 418.637 1120.94 421.589 1135.18 427.493C1149.42 433.397 1160.01 442.253 1166.96 454.06C1174.25 465.868 1179.29 478.718 1182.07 492.609C1184.85 506.501 1186.23 523.171 1186.23 542.619V689ZM1489.95 714.005C1489.95 738.662 1479.71 759.152 1459.22 775.474C1438.73 792.144 1404.17 800.479 1355.55 800.479C1302.77 800.479 1266.47 793.36 1246.68 779.121C1226.88 764.882 1216.99 741.788 1216.99 709.837H1297.73C1297.73 720.95 1301.72 729.806 1309.71 736.405C1318.05 743.35 1333.67 746.823 1356.6 746.823C1369.79 746.823 1380.21 745.087 1387.85 741.614C1395.84 738.488 1400.87 735.189 1402.96 731.716C1405.04 728.243 1406.08 724.597 1406.08 720.777C1406.08 710.011 1396.71 703.412 1377.95 700.981L1310.75 691.084C1296.51 689 1284.71 686.916 1275.33 684.833C1266.3 682.402 1257.1 679.102 1247.72 674.935C1238.34 670.42 1231.22 664.69 1226.36 657.744C1221.85 650.451 1219.59 641.769 1219.59 631.698C1219.59 609.124 1235.91 593.67 1268.56 585.335C1253.97 579.778 1243.03 571.096 1235.74 559.288C1228.79 547.133 1225.32 533.936 1225.32 519.698C1225.32 508.237 1226.36 497.992 1228.45 488.963C1230.88 479.933 1235.22 471.251 1241.47 462.916C1247.72 454.581 1255.88 447.636 1265.95 442.079C1276.02 436.175 1289.4 431.66 1306.07 428.535C1322.73 425.062 1342.18 423.326 1364.41 423.326H1484.74V459.791L1443.59 479.586C1452.27 483.406 1459.57 489.831 1465.47 498.86C1471.72 507.543 1474.85 518.135 1474.85 530.637C1474.85 558.767 1465.47 579.431 1446.72 592.628C1428.31 605.825 1393.58 612.423 1342.53 612.423C1328.64 612.423 1318.05 613.118 1310.75 614.507C1303.46 615.896 1299.29 617.285 1298.25 618.674C1297.21 620.064 1296.69 621.8 1296.69 623.884C1296.69 625.967 1297.73 627.878 1299.81 629.614C1302.24 631.003 1308.5 632.74 1318.57 634.823C1328.64 636.907 1343.57 639.338 1363.37 642.116L1420.67 649.93C1466.86 657.223 1489.95 678.581 1489.95 714.005ZM1390.98 521.781C1390.98 509.974 1388.02 501.118 1382.12 495.214C1376.56 489.31 1365.62 486.358 1349.3 486.358C1333.67 486.358 1322.73 489.31 1316.48 495.214C1310.58 501.118 1307.63 509.974 1307.63 521.781C1307.63 534.631 1310.58 544.355 1316.48 550.953C1322.73 557.552 1333.85 560.851 1349.82 560.851C1365.45 560.851 1376.22 557.552 1382.12 550.953C1388.02 544.355 1390.98 534.631 1390.98 521.781Z" fill="#22252B"/>
</g>
</svg>
