<svg width="42" height="42" viewBox="0 0 42 42" fill="none" xmlns="http://www.w3.org/2000/svg">
<path opacity="0.4" d="M13.5 31.4167L21 23.9167L28.5 31.4167L31.4166 28.5L23.9166 21L31.4166 13.5L28.5 10.5833L21 18.0833L13.5 10.5833L10.5833 13.5L18.0833 21L10.5833 28.5L13.5 31.4167ZM21 41.8333C18.118 41.8333 15.4097 41.2861 12.875 40.1917C10.3402 39.0986 8.13538 37.6146 6.26038 35.7396C4.38538 33.8646 2.90135 31.6597 1.80829 29.125C0.713848 26.5903 0.166626 23.882 0.166626 21C0.166626 18.1181 0.713848 15.4097 1.80829 12.875C2.90135 10.3403 4.38538 8.13542 6.26038 6.26042C8.13538 4.38542 10.3402 2.9007 12.875 1.80626C15.4097 0.713199 18.118 0.166672 21 0.166672C23.8819 0.166672 26.5902 0.713199 29.125 1.80626C31.6597 2.9007 33.8645 4.38542 35.7395 6.26042C37.6145 8.13542 39.0986 10.3403 40.1916 12.875C41.2861 15.4097 41.8333 18.1181 41.8333 21C41.8333 23.882 41.2861 26.5903 40.1916 29.125C39.0986 31.6597 37.6145 33.8646 35.7395 35.7396C33.8645 37.6146 31.6597 39.0986 29.125 40.1917C26.5902 41.2861 23.8819 41.8333 21 41.8333ZM21 37.6667C25.618 37.6667 29.5507 36.0438 32.7979 32.7979C36.0437 29.5507 37.6666 25.6181 37.6666 21C37.6666 16.382 36.0437 12.4493 32.7979 9.20209C29.5507 5.95626 25.618 4.33334 21 4.33334C16.3819 4.33334 12.45 5.95626 9.20413 9.20209C5.9569 12.4493 4.33329 16.382 4.33329 21C4.33329 25.6181 5.9569 29.5507 9.20413 32.7979C12.45 36.0438 16.3819 37.6667 21 37.6667Z" fill="#22252B"/>
</svg>
