<svg width="327" height="33" viewBox="0 0 327 33" fill="none" xmlns="http://www.w3.org/2000/svg">
<g opacity="0.5">
<path d="M17.5163 10.2496C17.2565 8.691 16.7252 7.48665 15.9223 6.63651C15.1194 5.78638 13.9091 5.36131 12.2915 5.36131C11.2406 5.36131 10.3374 5.55614 9.5817 5.94578C8.82603 6.33542 8.22976 6.90808 7.79288 7.66376C7.35601 8.40762 7.03721 9.26366 6.83648 10.2319C6.63576 11.1883 6.5354 12.2982 6.5354 13.5616C6.5354 14.8249 6.63576 15.9466 6.83648 16.9267C7.03721 17.8949 7.35601 18.7568 7.79288 19.5125C8.22976 20.2563 8.82603 20.8231 9.5817 21.2127C10.3374 21.6024 11.2406 21.7972 12.2915 21.7972C13.9327 21.7972 15.1548 21.3662 15.9577 20.5043C16.7606 19.6306 17.2801 18.4026 17.5163 16.8204H24.0517C23.8982 18.3672 23.544 19.7663 22.989 21.0179C22.4459 22.2577 21.7079 23.3381 20.7751 24.2591C19.8423 25.1682 18.6793 25.8767 17.286 26.3844C15.8928 26.8803 14.3283 27.1283 12.5926 27.1283C10.5853 27.1283 8.7788 26.7917 7.173 26.1187C5.56719 25.4339 4.24476 24.4893 3.20571 23.2849C2.16666 22.0688 1.36966 20.6401 0.814711 18.9989C0.27157 17.3458 0 15.5334 0 13.5616C0 11.6015 0.27157 9.8009 0.814711 8.15967C1.36966 6.51844 2.16666 5.09565 3.20571 3.89129C4.24476 2.67513 5.56719 1.73054 7.173 1.05752C8.7788 0.372688 10.5853 0.0302734 12.5926 0.0302734C14.3283 0.0302734 15.8869 0.278229 17.2683 0.77414C18.6498 1.27005 19.8069 1.97259 20.7397 2.88176C21.6843 3.79093 22.4341 4.8654 22.989 6.10518C23.544 7.34496 23.8982 8.72642 24.0517 10.2496H17.5163Z" fill="#22252B"/>
<path d="M36.3963 7.64605C37.0221 7.64605 37.5534 7.69327 37.9903 7.78773V12.8708H37.9195C37.1638 12.7291 36.4258 12.735 35.7056 12.8885C34.9853 13.0302 34.33 13.3018 33.7396 13.7032C33.1611 14.1047 32.6888 14.6714 32.3228 15.4035C31.9685 16.1238 31.7914 16.9621 31.7914 17.9185V26.5438H25.9822V7.96485H31.7914V11.0112H31.8623C32.3228 9.9603 32.9426 9.13968 33.7219 8.54931C34.5012 7.94713 35.3927 7.64605 36.3963 7.64605Z" fill="#22252B"/>
<path d="M50.2464 13.1188C50.2464 11.9616 49.4612 11.3831 47.8908 11.3831C46.84 11.3831 46.0489 11.5897 45.5175 12.003C44.998 12.4162 44.691 13.0656 44.5965 13.9512H39.1592C39.2065 13.0302 39.4072 12.186 39.7614 11.4185C40.1156 10.651 40.6352 9.9603 41.32 9.34631C42.0048 8.73233 42.9081 8.25413 44.0298 7.91171C45.1633 7.5693 46.4621 7.39809 47.9262 7.39809C50.6419 7.39809 52.6728 8.00617 54.0189 9.22233C55.3767 10.4267 56.0556 12.4398 56.0556 15.2618V23.7809C56.0556 24.7018 56.4158 25.1623 57.136 25.1623V26.5438C56.1088 26.9334 54.9871 27.1283 53.7709 27.1283C52.5665 27.1283 51.7105 26.8921 51.2028 26.4198C50.6951 25.9357 50.4412 25.3217 50.4412 24.5779H50.3704C49.7328 25.3099 48.8885 25.918 47.8377 26.4021C46.7986 26.8862 45.6946 27.1283 44.5257 27.1283C42.6129 27.1283 41.1193 26.6382 40.0448 25.6582C38.9703 24.6782 38.4331 23.3912 38.4331 21.7972C38.4331 20.0261 39.0294 18.6505 40.2219 17.6705C41.4263 16.6905 43.1856 15.9703 45.4998 15.5098C47.2119 15.1674 48.3159 14.9017 48.8118 14.7128C49.7564 14.3113 50.2346 13.78 50.2464 13.1188ZM46.5448 23.1255C47.7255 23.1255 48.6347 22.8008 49.2723 22.1514C49.9217 21.502 50.2464 20.705 50.2464 19.7604V17.5111C49.4789 17.8063 48.4871 18.0838 47.2709 18.3435C45.24 18.804 44.2246 19.6778 44.2246 20.9648C44.2246 22.4053 44.998 23.1255 46.5448 23.1255Z" fill="#22252B"/>
<path d="M57.5079 7.96485H63.3172L66.0978 19.2822H66.1687L69.215 7.96485H74.2981L77.3444 19.2822H77.4152L80.2136 7.96485H86.0228L80.8335 26.5438H75.3961L71.8008 14.7836H71.7299L68.1346 26.5438H62.6973L57.5079 7.96485Z" fill="#22252B"/>
<path d="M98.9165 4.98938C98.5623 4.98938 98.3025 4.98938 98.1372 4.98938C97.9837 4.98938 97.7771 4.99528 97.5173 5.00709C97.2694 5.0189 97.0922 5.04251 96.986 5.07794C96.8797 5.10155 96.738 5.13697 96.5609 5.1842C96.3956 5.23143 96.2775 5.29637 96.2067 5.37902C96.1477 5.44987 96.0709 5.53842 95.9764 5.64469C95.8938 5.73915 95.8348 5.86313 95.7993 6.01662C95.7757 6.15831 95.7521 6.32362 95.7285 6.51254C95.7049 6.70145 95.6931 6.91989 95.6931 7.16785V7.96485H98.9165V12.3218H95.6931V26.5438H89.8838V12.3218H87.1386V7.96485H89.8838V6.70736C89.8838 4.49937 90.2794 2.87586 91.0705 1.83681C91.8616 0.797754 93.2785 0.278229 95.3211 0.278229C96.5019 0.278229 97.7003 0.402206 98.9165 0.650162V4.98938Z" fill="#22252B"/>
<path d="M109.331 27.1283C112.365 27.1283 114.774 26.2191 116.557 24.4007C118.34 22.5706 119.231 20.1914 119.231 17.2632C119.231 14.3349 118.34 11.9616 116.557 10.1433C114.774 8.31316 112.365 7.39809 109.331 7.39809C106.272 7.39809 103.852 8.31316 102.069 10.1433C100.286 11.9616 99.3947 14.3349 99.3947 17.2632C99.3947 20.1914 100.286 22.5706 102.069 24.4007C103.852 26.2191 106.272 27.1283 109.331 27.1283ZM109.331 22.7713C108.032 22.7713 107.016 22.299 106.284 21.3544C105.552 20.398 105.186 19.0343 105.186 17.2632C105.186 15.4921 105.552 14.1283 106.284 13.1719C107.016 12.2155 108.032 11.7373 109.331 11.7373C110.618 11.7373 111.621 12.2155 112.341 13.1719C113.062 14.1283 113.422 15.4921 113.422 17.2632C113.422 19.0343 113.062 20.398 112.341 21.3544C111.621 22.299 110.618 22.7713 109.331 22.7713Z" fill="#22252B"/>
<path d="M131.647 7.64605C132.272 7.64605 132.804 7.69327 133.241 7.78773V12.8708H133.17C132.414 12.7291 131.676 12.735 130.956 12.8885C130.236 13.0302 129.58 13.3018 128.99 13.7032C128.411 14.1047 127.939 14.6714 127.573 15.4035C127.219 16.1238 127.042 16.9621 127.042 17.9185V26.5438H121.232V7.96485H127.042V11.0112H127.113C127.573 9.9603 128.193 9.13968 128.972 8.54931C129.752 7.94713 130.643 7.64605 131.647 7.64605Z" fill="#22252B"/>
<path d="M147.463 0.61474H153.254V26.5438H147.463V24.7018H147.392C146.943 25.304 146.235 25.859 145.266 26.3667C144.31 26.8744 143.224 27.1283 142.008 27.1283C139.528 27.1283 137.562 26.2427 136.11 24.4716C134.657 22.7005 133.931 20.2977 133.931 17.2632C133.931 14.2287 134.657 11.8259 136.11 10.0548C137.562 8.28364 139.528 7.39809 142.008 7.39809C143.224 7.39809 144.31 7.65195 145.266 8.15967C146.235 8.66739 146.943 9.22233 147.392 9.82451H147.463V0.61474ZM140.732 21.3544C141.405 22.299 142.338 22.7713 143.531 22.7713C144.723 22.7713 145.656 22.299 146.329 21.3544C147.014 20.4098 147.356 19.0461 147.356 17.2632C147.356 15.4803 147.014 14.1165 146.329 13.1719C145.656 12.2155 144.723 11.7373 143.531 11.7373C142.338 11.7373 141.405 12.2096 140.732 13.1542C140.059 14.0988 139.723 15.4684 139.723 17.2632C139.723 19.0461 140.059 20.4098 140.732 21.3544Z" fill="#22252B"/>
<path d="M184.125 17.1923C184.125 20.5102 183.269 22.9957 181.556 24.6487C179.856 26.3017 177.093 27.1283 173.268 27.1283C169.454 27.1283 166.691 26.3076 164.979 24.6664C163.279 23.0134 162.428 20.522 162.428 17.1923V0.61474H168.964V17.1923C168.964 18.8336 169.312 20.0143 170.009 20.7345C170.705 21.443 171.792 21.7972 173.268 21.7972C174.744 21.7972 175.83 21.443 176.527 20.7345C177.235 20.0143 177.589 18.8336 177.589 17.1923V0.61474H184.125V17.1923Z" fill="#22252B"/>
<path d="M199.09 7.39809C200.921 7.39809 202.379 7.97665 203.465 9.13378C204.563 10.2791 205.112 11.8967 205.112 13.9866V26.5438H199.303V15.8463C199.303 14.4884 199.067 13.5261 198.595 12.9594C198.134 12.3926 197.402 12.1092 196.398 12.1092C194.084 12.1092 192.927 13.3431 192.927 15.8109V26.5438H187.118V7.96485H192.927V10.6569H192.998C194.238 8.48437 196.268 7.39809 199.09 7.39809Z" fill="#22252B"/>
<path d="M212.799 5.07794C212.256 5.52662 211.559 5.75096 210.709 5.75096C209.859 5.75096 209.162 5.52662 208.619 5.07794C208.076 4.62925 207.804 3.99756 207.804 3.18285C207.804 2.37995 208.076 1.75415 208.619 1.30547C209.162 0.844984 209.859 0.61474 210.709 0.61474C211.559 0.61474 212.256 0.844984 212.799 1.30547C213.342 1.75415 213.614 2.37995 213.614 3.18285C213.614 3.99756 213.342 4.62925 212.799 5.07794ZM207.804 7.96485H213.614V26.5438H207.804V7.96485Z" fill="#22252B"/>
<path d="M214.924 7.96485H220.733L224.506 20.0792H224.577L228.349 7.96485H234.141L227.729 26.5438H221.336L214.924 7.96485Z" fill="#22252B"/>
<path d="M243.687 22.7713C244.608 22.7713 245.334 22.5942 245.865 22.24C246.409 21.8858 246.781 21.4489 246.981 20.9294H252.755C252.236 22.8658 251.22 24.383 249.709 25.4811C248.209 26.5792 246.237 27.1283 243.793 27.1283C240.747 27.1283 238.332 26.2191 236.549 24.4007C234.778 22.5824 233.893 20.2032 233.893 17.2632C233.893 14.3822 234.761 12.0207 236.496 10.1787C238.232 8.32497 240.552 7.39809 243.457 7.39809C245.523 7.39809 247.282 7.88219 248.735 8.8504C250.199 9.81861 251.279 11.1469 251.976 12.8354C252.684 14.5239 253.038 16.5075 253.038 18.7863H239.684C239.684 20.0261 240.074 21.0002 240.853 21.7087C241.644 22.4171 242.589 22.7713 243.687 22.7713ZM246.202 12.3926C245.517 11.7196 244.602 11.3831 243.457 11.3831C242.311 11.3831 241.396 11.7196 240.712 12.3926C240.027 13.0538 239.684 14.0102 239.684 15.2618H247.229C247.229 14.0102 246.887 13.0538 246.202 12.3926Z" fill="#22252B"/>
<path d="M265.436 7.64605C266.062 7.64605 266.593 7.69327 267.03 7.78773V12.8708H266.959C266.204 12.7291 265.466 12.735 264.746 12.8885C264.025 13.0302 263.37 13.3018 262.78 13.7032C262.201 14.1047 261.729 14.6714 261.363 15.4035C261.008 16.1238 260.831 16.9621 260.831 17.9185V26.5438H255.022V7.96485H260.831V11.0112H260.902C261.363 9.9603 261.983 9.13968 262.762 8.54931C263.541 7.94713 264.433 7.64605 265.436 7.64605Z" fill="#22252B"/>
<path d="M277.976 14.819C278.814 15.008 279.54 15.1969 280.154 15.3858C280.768 15.5629 281.418 15.8168 282.102 16.1474C282.787 16.478 283.342 16.8558 283.767 17.2809C284.204 17.6941 284.564 18.2255 284.848 18.8749C285.131 19.5243 285.273 20.2563 285.273 21.0711C285.273 23.0193 284.564 24.5188 283.147 25.5697C281.73 26.6087 279.729 27.1283 277.143 27.1283C275.526 27.1283 274.115 26.957 272.91 26.6146C271.706 26.2722 270.744 25.7881 270.023 25.1623C269.303 24.5365 268.76 23.8281 268.394 23.037C268.028 22.2459 267.821 21.3603 267.774 20.3803H273.229C273.406 22.2105 274.634 23.1255 276.913 23.1255C277.728 23.1255 278.354 22.9898 278.79 22.7182C279.239 22.4466 279.463 22.0511 279.463 21.5315C279.463 21.0711 279.28 20.6932 278.914 20.398C278.56 20.1028 278.171 19.8962 277.745 19.7781C277.332 19.6483 276.612 19.4712 275.585 19.2468C275.467 19.2232 275.372 19.2055 275.301 19.1937C275.242 19.1701 275.16 19.1524 275.053 19.1405C274.959 19.1169 274.87 19.0933 274.788 19.0697C274.056 18.9044 273.412 18.745 272.857 18.5915C272.314 18.4262 271.73 18.1901 271.104 17.8831C270.478 17.5643 269.964 17.2159 269.563 16.8381C269.161 16.4603 268.825 15.9703 268.553 15.3681C268.282 14.7659 268.146 14.0929 268.146 13.349C268.146 11.6133 268.866 10.1905 270.307 9.08064C271.747 7.95894 273.737 7.39809 276.275 7.39809C277.704 7.39809 278.967 7.5693 280.066 7.91171C281.164 8.25413 282.032 8.72642 282.669 9.3286C283.319 9.91897 283.809 10.5802 284.139 11.3122C284.482 12.0325 284.676 12.8177 284.724 13.6678H279.286C279.192 12.9003 278.92 12.3277 278.472 11.9498C278.023 11.572 277.338 11.3831 276.417 11.3831C275.614 11.3831 275 11.5189 274.575 11.7904C274.162 12.0502 273.955 12.4103 273.955 12.8708C273.955 13.0125 273.967 13.1424 273.991 13.2605C274.014 13.3785 274.062 13.4848 274.132 13.5793C274.215 13.6737 274.286 13.7564 274.345 13.8272C274.416 13.8863 274.528 13.9512 274.681 14.022C274.847 14.0811 274.988 14.1342 275.107 14.1814C275.236 14.2287 275.419 14.2818 275.656 14.3408C275.904 14.3881 276.116 14.4353 276.293 14.4825C276.482 14.518 276.748 14.5711 277.09 14.6419C277.433 14.701 277.728 14.76 277.976 14.819Z" fill="#22252B"/>
<path d="M292.18 5.07794C291.637 5.52662 290.94 5.75096 290.09 5.75096C289.24 5.75096 288.543 5.52662 288 5.07794C287.457 4.62925 287.185 3.99756 287.185 3.18285C287.185 2.37995 287.457 1.75415 288 1.30547C288.543 0.844984 289.24 0.61474 290.09 0.61474C290.94 0.61474 291.637 0.844984 292.18 1.30547C292.723 1.75415 292.995 2.37995 292.995 3.18285C292.995 3.99756 292.723 4.62925 292.18 5.07794ZM287.185 7.96485H292.995V26.5438H287.185V7.96485Z" fill="#22252B"/>
<path d="M306.42 12.3218H303.196V20.0084C303.196 20.28 303.202 20.5161 303.214 20.7168C303.238 20.9058 303.285 21.077 303.356 21.2305C303.438 21.384 303.503 21.5079 303.551 21.6024C303.61 21.6968 303.722 21.7795 303.887 21.8503C304.064 21.9212 304.206 21.9743 304.312 22.0097C304.418 22.0452 304.607 22.0747 304.879 22.0983C305.162 22.1101 305.392 22.116 305.57 22.116C305.747 22.116 306.03 22.116 306.42 22.116V26.4729C305.145 26.7327 303.946 26.8626 302.824 26.8626C300.782 26.8626 299.365 26.349 298.574 25.3217C297.783 24.2827 297.387 22.6592 297.387 20.4512V12.3218H294.819V7.96485H297.387V2.7932H303.196V7.96485H306.42V12.3218Z" fill="#22252B"/>
<path d="M327 7.96485L320.677 26.898C319.886 29.2477 318.977 30.8417 317.95 31.68C316.922 32.5301 315.417 32.9552 313.433 32.9552C312.418 32.9552 311.337 32.8371 310.192 32.601V28.2441H310.263C312.022 28.6337 313.197 28.3798 313.788 27.4825C314.283 26.7268 314.236 25.5165 313.646 23.8517L307.589 7.96485H313.398L317.595 20.1678H317.666L321.191 7.96485H327Z" fill="#22252B"/>
</g>
</svg>
