<svg width="145" height="108" viewBox="0 0 145 108" fill="none" xmlns="http://www.w3.org/2000/svg">
<path fill-rule="evenodd" clip-rule="evenodd" d="M67.6857 1.70801L67.6897 1.70397L89.6393 22.646L89.6353 22.6445C93.3053 26.2424 95.8927 31.0021 96.7675 36.4483L97.0823 40.3933C97.0823 53.7433 86.542 64.7119 73.2023 65.2436C59.8629 65.775 48.4831 55.6794 47.4215 42.3716C46.458 30.3021 54.2929 19.4958 65.6476 16.4018L59.3027 10.4191L59.3105 10.411C58.2589 9.39083 57.6155 8.02218 57.5009 6.56158C57.2427 3.3302 59.5819 0.471662 62.8009 0.0855373C64.657 -0.137127 66.4239 0.507762 67.6857 1.70801ZM71.9827 24.5025L84.8831 37.4731C85.5172 38.027 85.937 38.7857 86.0695 39.6171L86.1154 40.1898C86.1159 40.7032 86.0066 41.2107 85.7951 41.6784C85.5835 42.1462 85.2744 42.5633 84.8886 42.9019L71.9024 56.0059C71.1803 56.7311 70.2106 57.1562 69.188 57.1958C67.0171 57.2818 65.165 55.6429 64.9917 53.4821C64.9444 52.8948 65.0266 52.3043 65.2325 51.7522C65.4384 51.2001 65.763 50.7 66.1833 50.2871L66.1816 50.2854L72.7625 43.7048H59.1011V43.6996C57.2092 43.7215 55.6124 42.2735 55.4611 40.3755C55.3068 38.4435 56.7058 36.7338 58.6303 36.5027C58.7618 36.4871 58.8923 36.4787 59.0217 36.477L59.0673 36.4776C62.3579 36.4888 65.6485 36.487 68.9391 36.4852C70.1535 36.4846 71.3679 36.4839 72.5823 36.4839L66.3864 30.2883C65.6011 29.5996 65.1157 28.6316 65.0333 27.5904C64.8612 25.4374 66.4236 23.5327 68.5734 23.2751C69.198 23.1997 69.8316 23.2714 70.4236 23.4846C71.0156 23.6977 71.5495 24.0463 71.9827 24.5025Z" fill="#22252B" fill-opacity="0.5"/>
<path fill-rule="evenodd" clip-rule="evenodd" d="M0 79.5952V106.439H12.285C16.0255 106.439 18.8921 105.284 20.8845 102.973C22.8893 100.663 23.8916 97.3504 23.8916 93.0354C23.8916 88.7448 22.8343 85.4321 20.7195 83.0974C18.617 80.7626 15.6833 79.5952 11.9183 79.5952H0ZM6.76593 100.92V85.1143H11.2399C15.1638 85.1143 17.1257 87.7547 17.1257 93.0354C17.1257 98.2917 15.1638 100.92 11.2399 100.92H6.76593Z" fill="#22252B" fill-opacity="0.5"/>
<path fill-rule="evenodd" clip-rule="evenodd" d="M43.0159 104.22C41.1701 106.103 38.6764 107.044 35.5349 107.044C32.3689 107.044 29.863 106.103 28.0172 104.22C26.1714 102.326 25.2485 99.8624 25.2485 96.8309C25.2485 93.7994 26.1714 91.3424 28.0172 89.4599C29.863 87.5652 32.3689 86.6178 35.5349 86.6178C38.6764 86.6178 41.1701 87.5652 43.0159 89.4599C44.8617 91.3424 45.7846 93.7994 45.7846 96.8309C45.7846 99.8624 44.8617 102.326 43.0159 104.22ZM32.3811 101.066C33.139 102.044 34.1903 102.533 35.5349 102.533C36.8673 102.533 37.9063 102.044 38.652 101.066C39.3977 100.076 39.7705 98.6645 39.7705 96.8309C39.7705 94.9973 39.3977 93.5855 38.652 92.5953C37.9063 91.6052 36.8673 91.1101 35.5349 91.1101C34.1903 91.1101 33.139 91.6052 32.3811 92.5953C31.6233 93.5855 31.2443 94.9973 31.2443 96.8309C31.2443 98.6645 31.6233 100.076 32.3811 101.066Z" fill="#22252B" fill-opacity="0.5"/>
<path d="M60.2883 94.3922C60.2394 93.9766 60.1416 93.5855 59.9949 93.2187C59.8605 92.852 59.6649 92.5036 59.4082 92.1736C59.1515 91.8436 58.8031 91.5869 58.3631 91.4035C57.9352 91.2079 57.434 91.1101 56.8595 91.1101C55.6249 91.1101 54.6714 91.6113 53.9991 92.6137C53.3268 93.616 52.9906 95.0218 52.9906 96.8309C52.9906 98.6523 53.3207 100.058 53.9808 101.048C54.6531 102.038 55.6127 102.533 56.8595 102.533C57.9719 102.533 58.7909 102.222 59.3165 101.598C59.8544 100.975 60.1783 100.174 60.2883 99.1962H66.1741C66.0274 101.519 65.1229 103.407 63.4604 104.862C61.798 106.317 59.6099 107.044 56.8962 107.044C53.8769 107.044 51.4688 106.103 49.6719 104.22C47.8872 102.338 46.9948 99.8747 46.9948 96.8309C46.9948 93.8116 47.8811 91.3546 49.6535 89.4599C51.4382 87.5652 53.8035 86.6178 56.7495 86.6178C59.4632 86.6178 61.6452 87.339 63.2954 88.7815C64.9578 90.2117 65.9174 92.0819 66.1741 94.3922H60.2883Z" fill="#22252B" fill-opacity="0.5"/>
<path d="M75.7638 91.7152H79.1009V87.2046H75.7638V81.8505H69.7496V87.2046H67.0909V91.7152H69.7496V100.131C69.7496 102.417 70.1591 104.098 70.9781 105.174C71.7971 106.237 73.264 106.769 75.3787 106.769C76.54 106.769 77.7807 106.634 79.1009 106.366V101.855H78.2208C78.0374 101.855 77.7991 101.849 77.5057 101.837C77.2245 101.812 77.029 101.782 76.9189 101.745C76.8089 101.708 76.6622 101.653 76.4789 101.58C76.3077 101.507 76.1916 101.421 76.1305 101.323C76.0816 101.225 76.0144 101.097 75.9288 100.938C75.8555 100.779 75.8066 100.602 75.7821 100.406C75.7699 100.199 75.7638 99.9541 75.7638 99.673V91.7152Z" fill="#22252B" fill-opacity="0.5"/>
<path d="M92.0827 86.8745C92.7306 86.8745 93.2806 86.9234 93.7329 87.0212V92.2836H93.6596C92.8773 92.1369 92.1133 92.143 91.3676 92.3019C90.6219 92.4486 89.9435 92.7298 89.3323 93.1454C88.7334 93.561 88.2444 94.1478 87.8655 94.9056C87.4987 95.6513 87.3154 96.5192 87.3154 97.5093V106.439H81.3012V87.2046H87.3154V90.3584H87.3887C87.8655 89.2704 88.5072 88.4209 89.314 87.8097C90.1208 87.1862 91.0437 86.8745 92.0827 86.8745Z" fill="#22252B" fill-opacity="0.5"/>
<path d="M98.6836 84.9126C99.5637 84.9126 100.285 84.6803 100.847 84.2158C101.41 83.7513 101.691 83.0974 101.691 82.2539C101.691 81.4227 101.41 80.7748 100.847 80.3103C100.285 79.8336 99.5637 79.5952 98.6836 79.5952C97.8035 79.5952 97.0823 79.8336 96.52 80.3103C95.9577 80.7748 95.6765 81.4227 95.6765 82.2539C95.6765 83.0974 95.9577 83.7513 96.52 84.2158C97.0823 84.6803 97.8035 84.9126 98.6836 84.9126Z" fill="#22252B" fill-opacity="0.5"/>
<path d="M101.691 106.439V87.2046H95.6765V106.439H101.691Z" fill="#22252B" fill-opacity="0.5"/>
<path d="M117.019 86.6178C118.914 86.6178 120.424 87.2168 121.548 88.4147C122.685 89.6005 123.254 91.2751 123.254 93.4388V106.439H117.24V95.364C117.24 93.9583 116.995 92.962 116.506 92.3753C116.029 91.7885 115.271 91.4952 114.232 91.4952C111.837 91.4952 110.639 92.7726 110.639 95.3274V106.439H104.624V87.2046H110.639V89.9916H110.712C111.995 87.7424 114.098 86.6178 117.019 86.6178Z" fill="#22252B" fill-opacity="0.5"/>
<path fill-rule="evenodd" clip-rule="evenodd" d="M137.574 101.983C137.024 102.35 136.272 102.533 135.319 102.533C134.182 102.533 133.204 102.167 132.385 101.433C131.578 100.7 131.175 99.6913 131.175 98.4078H145C145 96.0486 144.633 93.995 143.9 92.2469C143.179 90.4989 142.06 89.1237 140.544 88.1214C139.041 87.119 137.219 86.6178 135.08 86.6178C132.073 86.6178 129.671 87.5774 127.874 89.4966C126.077 91.4035 125.179 93.8483 125.179 96.8309C125.179 99.8747 126.096 102.338 127.929 104.22C129.775 106.103 132.275 107.044 135.429 107.044C137.959 107.044 140 106.476 141.553 105.339C143.118 104.202 144.169 102.631 144.707 100.626H138.729C138.521 101.164 138.136 101.617 137.574 101.983ZM135.08 90.7434C136.266 90.7434 137.213 91.0918 137.922 91.7885C138.631 92.4731 138.986 93.4632 138.986 94.759H131.175C131.175 93.4632 131.529 92.4731 132.238 91.7885C132.947 91.0918 133.895 90.7434 135.08 90.7434Z" fill="#22252B" fill-opacity="0.5"/>
</svg>
