<svg width="24" height="24" viewBox="0 0 24 24" fill="none" xmlns="http://www.w3.org/2000/svg">
<circle cx="11.876" cy="12.1299" r="11.876" fill="#E8E4F6"/>
<g clip-path="url(#clip0_270_149)">
<path d="M11.2317 12.7745L15.8485 7.61446C15.7723 7.59086 15.6913 7.57812 15.6076 7.57812H6.85581C6.40455 7.57812 6.03534 7.94734 6.03534 8.3986V17.1503C6.03534 17.2341 6.04807 17.315 6.07168 17.3913L11.2317 12.7745Z" fill="#0F9D58"/>
<path d="M11.2317 12.7744L6.61481 17.9344C6.69108 17.958 6.77202 17.9708 6.85578 17.9708H15.6075C15.6913 17.9708 15.7722 17.958 15.8485 17.9344L11.2317 12.7744Z" fill="#4285F4"/>
<path d="M11.2317 12.7746L16.3917 17.3914C16.4153 17.3151 16.428 17.2342 16.428 17.1504V8.39869C16.428 8.31493 16.4153 8.23399 16.3917 8.15771L11.2317 12.7746Z" fill="#D2D2D2"/>
<path d="M16.4281 17.1499L11.5052 12.2271L10.548 13.0475L15.4708 17.9704H15.6076C16.0588 17.9704 16.4281 17.6012 16.4281 17.1499Z" fill="#F1F1F1"/>
<path d="M15.6076 7.57812L6.03534 17.1503C6.03534 17.6016 6.40455 17.9708 6.85581 17.9708H6.99256L16.428 8.53535V8.3986C16.428 7.94734 16.0588 7.57812 15.6076 7.57812Z" fill="#FFDE48"/>
<path d="M15.6076 7.57812H6.85581C6.40455 7.57812 6.03534 7.94734 6.03534 8.3986V8.46697C6.03534 8.01571 6.40455 7.6465 6.85581 7.6465H15.6076C16.0588 7.6465 16.428 8.01571 16.428 8.46697V8.3986C16.428 7.94734 16.0588 7.57812 15.6076 7.57812Z" fill="white" fill-opacity="0.2"/>
<path d="M15.6076 17.902H6.85581C6.40455 17.902 6.03534 17.5328 6.03534 17.0815V17.1499C6.03534 17.6012 6.40455 17.9704 6.85581 17.9704H15.6076C16.0588 17.9704 16.428 17.6012 16.428 17.1499V17.0815C16.428 17.5328 16.0588 17.902 15.6076 17.902Z" fill="#263238" fill-opacity="0.1"/>
<path d="M8.35998 9.62915V10.2117H9.16951C9.10524 10.5577 8.80167 10.8093 8.35998 10.8093C7.86906 10.8093 7.46976 10.3936 7.46976 9.90401C7.46976 9.41446 7.86906 8.99875 8.35998 8.99875C8.58151 8.99875 8.77842 9.07533 8.93568 9.22302L9.36643 8.79227C9.10524 8.54749 8.76612 8.39844 8.35998 8.39844C7.52856 8.39844 6.85577 9.07123 6.85577 9.90264C6.85577 10.7341 7.52856 11.4068 8.35998 11.4068C9.22832 11.4068 9.80402 10.7956 9.80402 9.93683C9.80402 9.83017 9.79445 9.72761 9.77667 9.62915L8.35998 9.62915Z" fill="#EEEEEE"/>
<mask id="mask0_270_149" style="mask-type:luminance" maskUnits="userSpaceOnUse" x="6" y="6" width="12" height="12">
<path d="M14.7871 6.48389C13.8928 6.48389 13.0983 6.91327 12.5991 7.57785H6.85581C6.40455 7.57785 6.03534 7.94707 6.03534 8.39833V17.1501C6.03534 17.6013 6.40455 17.9705 6.85581 17.9705H15.6076C16.0588 17.9705 16.428 17.6013 16.428 17.1501V11.7937C17.0024 10.9541 17.522 10.1979 17.522 9.21881C17.522 7.70776 16.2981 6.48389 14.7871 6.48389Z" fill="white"/>
</mask>
<g mask="url(#mask0_270_149)">
<g opacity="0.25" filter="url(#filter0_f_270_149)">
<path d="M14.7871 6.48389C13.2761 6.48389 12.0522 7.70776 12.0522 9.21881C12.0522 11.2796 14.3536 12.353 14.6257 15.2944C14.6339 15.3765 14.7037 15.4407 14.7871 15.4407C14.8705 15.4407 14.9416 15.3765 14.9485 15.2944C15.2206 12.353 17.522 11.2796 17.522 9.21881C17.522 7.70776 16.2981 6.48389 14.7871 6.48389Z" fill="#DB4437"/>
</g>
</g>
<path d="M14.7871 6.48389C13.2761 6.48389 12.0522 7.70776 12.0522 9.21881C12.0522 11.2796 14.3536 12.353 14.6257 15.2944C14.6339 15.3765 14.7037 15.4407 14.7871 15.4407C14.8705 15.4407 14.9416 15.3765 14.9485 15.2944C15.2206 12.353 17.522 11.2796 17.522 9.21881C17.522 7.70776 16.2981 6.48389 14.7871 6.48389Z" fill="#DB4437"/>
<path d="M14.7871 10.1762C15.3158 10.1762 15.7443 9.7476 15.7443 9.21894C15.7443 8.69028 15.3158 8.26172 14.7871 8.26172C14.2585 8.26172 13.8299 8.69028 13.8299 9.21894C13.8299 9.7476 14.2585 10.1762 14.7871 10.1762Z" fill="#7B231E"/>
<path d="M14.7871 6.55226C16.2845 6.55226 17.5001 7.75562 17.5207 9.24752C17.5207 9.23795 17.522 9.22838 17.522 9.21881C17.522 7.70776 16.2981 6.48389 14.7871 6.48389C13.2761 6.48389 12.0522 7.70776 12.0522 9.21881C12.0522 9.22838 12.0536 9.23795 12.0536 9.24752C12.0741 7.75562 13.2897 6.55226 14.7871 6.55226Z" fill="white" fill-opacity="0.2"/>
<path d="M14.9485 15.2261C14.9416 15.3082 14.8705 15.3724 14.7871 15.3724C14.7037 15.3724 14.6326 15.3082 14.6257 15.2261C14.3564 12.2984 12.0754 11.2208 12.0536 9.1792C12.0536 9.19287 12.0522 9.20518 12.0522 9.21886C12.0522 11.2796 14.3536 12.3531 14.6257 15.2945C14.6339 15.3765 14.7037 15.4408 14.7871 15.4408C14.8705 15.4408 14.9416 15.3765 14.9485 15.2945C15.2206 12.3531 17.522 11.2796 17.522 9.21886C17.522 9.20518 17.5207 9.19287 17.5207 9.1792C17.4988 11.2208 15.2192 12.2997 14.9485 15.2261Z" fill="#3E2723" fill-opacity="0.2"/>
<path d="M14.7871 6.48389C13.8928 6.48389 13.0983 6.91327 12.5991 7.57785H6.85581C6.40455 7.57785 6.03534 7.94707 6.03534 8.39833V17.1501C6.03534 17.6013 6.40455 17.9705 6.85581 17.9705H15.6076C16.0588 17.9705 16.428 17.6013 16.428 17.1501V11.7937C17.0024 10.9541 17.522 10.1979 17.522 9.21881C17.522 7.70776 16.2981 6.48389 14.7871 6.48389Z" fill="url(#paint0_radial_270_149)"/>
</g>
<defs>
<filter id="filter0_f_270_149" x="9.1547" y="3.58641" width="11.2648" height="14.752" filterUnits="userSpaceOnUse" color-interpolation-filters="sRGB">
<feFlood flood-opacity="0" result="BackgroundImageFix"/>
<feBlend mode="normal" in="SourceGraphic" in2="BackgroundImageFix" result="shape"/>
<feGaussianBlur stdDeviation="1.44874" result="effect1_foregroundBlur_270_149"/>
</filter>
<radialGradient id="paint0_radial_270_149" cx="0" cy="0" r="1" gradientUnits="userSpaceOnUse" gradientTransform="translate(6.32045 7.8043) scale(14.0091)">
<stop stop-color="white" stop-opacity="0.1"/>
<stop offset="1" stop-color="white" stop-opacity="0"/>
</radialGradient>
<clipPath id="clip0_270_149">
<rect width="11.4867" height="11.4867" fill="white" transform="translate(6.03534 6.48389)"/>
</clipPath>
</defs>
</svg>
