<svg width="20" height="20" viewBox="0 0 20 20" fill="none" xmlns="http://www.w3.org/2000/svg">
<path d="M20 8.99559V18.3771C19.9993 18.67 19.9177 18.9572 19.7637 19.2088C19.6098 19.4604 19.3892 19.6671 19.125 19.8071C18.8828 19.9372 18.6099 20.0036 18.3333 19.9998H13.3333C13.1123 19.9998 12.9004 19.9144 12.7441 19.7622C12.5878 19.61 12.5 19.4037 12.5 19.1885V14.3202C12.5 14.105 12.4122 13.8987 12.2559 13.7465C12.0997 13.5943 11.8877 13.5089 11.6667 13.5089H8.33335C8.11233 13.5089 7.90037 13.5943 7.74409 13.7465C7.58781 13.8987 7.50001 14.105 7.50001 14.3202V19.1885C7.50001 19.4037 7.41222 19.61 7.25594 19.7622C7.09966 19.9144 6.88769 19.9998 6.66668 19.9998H1.66669C1.43025 20.0007 1.19637 19.9523 0.980764 19.8578C0.765156 19.7634 0.57282 19.625 0.416687 19.4522C0.145745 19.1405 -0.00201149 18.7449 2.06861e-05 18.3365V8.99559C9.41713e-05 8.77044 0.0482901 8.54776 0.141543 8.34172C0.234797 8.13568 0.371067 7.9508 0.541687 7.79881L8.87501 0.425456C9.18225 0.151778 9.58359 0 10 0C10.4164 0 10.8178 0.151778 11.125 0.425456L19.4583 7.79881C19.629 7.9508 19.7652 8.13568 19.8585 8.34172C19.9517 8.54776 19.9999 8.77044 20 8.99559Z" fill="#22252B"/>
</svg>
