<svg width="20" height="21" viewBox="0 0 20 21" fill="none" xmlns="http://www.w3.org/2000/svg">
<path d="M4.80134 0C2.30186 0 -0.0800369 1.71294 0.00206262 4.42729C0.0704789 6.71037 0.614261 9.76528 2.47417 12.9864C3.98833 15.6189 6.07485 17.8774 8.57943 19.5949C10.8569 21.1528 13.6509 20.0698 14.9873 17.883C15.2717 17.4176 15.4037 16.875 15.3648 16.3309C15.326 15.7869 15.1181 15.2686 14.7703 14.8484L13.5465 13.3701C13.1957 12.9462 12.7221 12.6415 12.191 12.4979C11.6599 12.3543 11.0973 12.3789 10.5807 12.5683L9.08166 13.1182C8.65292 13.2753 8.26219 13.1937 8.03261 12.956C7.08999 11.985 5.92792 10.3086 5.41759 9.06693C5.30103 8.78313 5.40745 8.39645 5.81896 8.10251L7.22125 7.10059C7.68975 6.76596 8.03707 6.28838 8.21106 5.73955C8.38504 5.19073 8.37631 4.60027 8.18617 4.05683L7.3895 1.78136C7.20722 1.26077 6.86764 0.809704 6.41777 0.490568C5.96789 0.171432 5.42995 2.65041e-06 4.87837 0H4.80083H4.80134ZM19.8144 0.312181C19.8732 0.371008 19.9199 0.44085 19.9518 0.517718C19.9836 0.594587 20 0.676976 20 0.760181C20 0.843385 19.9836 0.925774 19.9518 1.00264C19.9199 1.07951 19.8732 1.14935 19.8144 1.20818L13.0407 7.9819H18.3528C18.5208 7.9819 18.682 8.04864 18.8008 8.16744C18.9196 8.28624 18.9863 8.44737 18.9863 8.61538C18.9863 8.78339 18.9196 8.94452 18.8008 9.06332C18.682 9.18212 18.5208 9.24887 18.3528 9.24887H11.5112C11.1615 9.24887 10.8777 8.96506 10.8777 8.61538V1.77375C10.8777 1.60574 10.9445 1.44462 11.0633 1.32581C11.1821 1.20701 11.3432 1.14027 11.5112 1.14027C11.6792 1.14027 11.8403 1.20701 11.9591 1.32581C12.0779 1.44462 12.1447 1.60574 12.1447 1.77375V7.0859L18.9184 0.312181C18.9772 0.253339 19.0471 0.206662 19.1239 0.174816C19.2008 0.14297 19.2832 0.126579 19.3664 0.126579C19.4496 0.126579 19.532 0.14297 19.6089 0.174816C19.6857 0.206662 19.7556 0.253339 19.8144 0.312181Z" fill="#22252B"/>
</svg>
