<svg width="24" height="25" viewBox="0 0 24 25" fill="none" xmlns="http://www.w3.org/2000/svg">
<circle cx="11.876" cy="12.378" r="11.876" fill="#E8E4F6"/>
<path d="M17.5221 15.8035C17.5221 15.9503 17.4949 16.142 17.4405 16.3786C17.3861 16.6152 17.329 16.8015 17.2692 16.9374C17.1549 17.2094 16.8232 17.4976 16.2739 17.8022C15.7626 18.0796 15.2568 18.2183 14.7565 18.2183C14.6096 18.2183 14.4668 18.2087 14.3281 18.1897C14.1895 18.1707 14.0331 18.1367 13.8591 18.0877C13.685 18.0388 13.5558 17.9994 13.4715 17.9694C13.3872 17.9395 13.2363 17.8838 13.0188 17.8022C12.8012 17.7206 12.668 17.6717 12.619 17.6554C12.086 17.465 11.6101 17.2393 11.1913 16.9782C10.4952 16.5486 9.77591 15.9625 9.03352 15.2201C8.29113 14.4778 7.7051 13.7585 7.27544 13.0623C7.01438 12.6435 6.78867 12.1676 6.59831 11.6346C6.582 11.5857 6.53305 11.4524 6.45147 11.2349C6.36988 11.0173 6.31414 10.8664 6.28422 10.7821C6.25431 10.6978 6.21488 10.5686 6.16593 10.3946C6.11698 10.2206 6.08299 10.0642 6.06395 9.92551C6.04492 9.78683 6.0354 9.64406 6.0354 9.49721C6.0354 8.99685 6.17409 8.49104 6.45147 7.9798C6.75604 7.43048 7.04429 7.09872 7.31623 6.9845C7.4522 6.92468 7.63847 6.86757 7.87506 6.81318C8.11165 6.7588 8.30336 6.7316 8.45021 6.7316C8.52635 6.7316 8.58346 6.73976 8.62153 6.75608C8.71943 6.78871 8.86356 6.99538 9.05391 7.3761C9.11374 7.47943 9.19532 7.62628 9.29866 7.81663C9.40199 8.00699 9.49717 8.17967 9.58419 8.33468C9.67121 8.48968 9.75551 8.63517 9.83709 8.77114C9.85341 8.79289 9.901 8.86088 9.97986 8.97509C10.0587 9.0893 10.1172 9.18584 10.1553 9.2647C10.1933 9.34357 10.2124 9.42107 10.2124 9.49721C10.2124 9.60599 10.1349 9.74196 9.97986 9.90512C9.82486 10.0683 9.65625 10.2178 9.47406 10.3538C9.29186 10.4898 9.12326 10.6339 8.96825 10.7862C8.81325 10.9385 8.73574 11.0636 8.73574 11.1615C8.73574 11.2104 8.74934 11.2716 8.77654 11.345C8.80373 11.4185 8.82684 11.4742 8.84588 11.5123C8.86491 11.5503 8.90299 11.6156 8.96009 11.7081C9.0172 11.8005 9.04847 11.8522 9.05391 11.8631C9.46726 12.6082 9.94043 13.2472 10.4734 13.7802C11.0064 14.3132 11.6455 14.7864 12.3906 15.1998C12.4015 15.2052 12.4531 15.2365 12.5456 15.2936C12.6381 15.3507 12.7033 15.3887 12.7414 15.4078C12.7795 15.4268 12.8352 15.4499 12.9086 15.4771C12.9821 15.5043 13.0432 15.5179 13.0922 15.5179C13.1901 15.5179 13.3152 15.4404 13.4675 15.2854C13.6198 15.1304 13.7639 14.9618 13.8998 14.7796C14.0358 14.5974 14.1854 14.4288 14.3485 14.2738C14.5117 14.1188 14.6477 14.0413 14.7565 14.0413C14.8326 14.0413 14.9101 14.0603 14.989 14.0984C15.0678 14.1365 15.1644 14.1949 15.2786 14.2738C15.3928 14.3527 15.4608 14.4003 15.4825 14.4166C15.6185 14.4982 15.764 14.5825 15.919 14.6695C16.074 14.7565 16.2467 14.8517 16.437 14.955C16.6274 15.0583 16.7742 15.1399 16.8776 15.1998C17.2583 15.3901 17.465 15.5342 17.4976 15.6321C17.5139 15.6702 17.5221 15.7273 17.5221 15.8035Z" fill="black"/>
</svg>
