<svg width="42" height="14" viewBox="0 0 42 14" fill="none" xmlns="http://www.w3.org/2000/svg">
<path d="M6.72292 1.33877C6.74848 1.28712 6.78797 1.24365 6.83693 1.21325C6.88589 1.18285 6.94237 1.16675 7 1.16675C7.05763 1.16675 7.11411 1.18285 7.16307 1.21325C7.21203 1.24365 7.25152 1.28712 7.27709 1.33877L8.62458 4.06819C8.71336 4.24783 8.84439 4.40326 9.00645 4.52112C9.16851 4.63898 9.35674 4.71575 9.555 4.74485L12.5685 5.18585C12.6256 5.19413 12.6792 5.21821 12.7234 5.25539C12.7675 5.29256 12.8003 5.34134 12.8182 5.39621C12.836 5.45107 12.8382 5.50984 12.8243 5.56586C12.8105 5.62187 12.7813 5.67291 12.74 5.71319L10.5607 7.83535C10.4169 7.97541 10.3094 8.1483 10.2473 8.33914C10.1852 8.52997 10.1705 8.73304 10.2043 8.93085L10.7188 11.9292C10.7288 11.9863 10.7227 12.045 10.701 12.0988C10.6793 12.1525 10.6429 12.199 10.596 12.2331C10.5491 12.2672 10.4936 12.2874 10.4358 12.2914C10.3779 12.2954 10.3202 12.2831 10.269 12.2559L7.57517 10.8395C7.39767 10.7463 7.20019 10.6976 6.99971 10.6976C6.79923 10.6976 6.60175 10.7463 6.42425 10.8395L3.731 12.2559C3.67986 12.2829 3.62215 12.2951 3.56443 12.291C3.50671 12.2869 3.4513 12.2667 3.40451 12.2326C3.35771 12.1986 3.3214 12.1521 3.29972 12.0985C3.27803 12.0448 3.27184 11.9862 3.28184 11.9292L3.79575 8.93144C3.8297 8.73353 3.81499 8.53033 3.7529 8.33938C3.69081 8.14842 3.58319 7.97544 3.43934 7.83535L1.26 5.71377C1.21835 5.67354 1.18883 5.62242 1.17481 5.56623C1.1608 5.51004 1.16284 5.45105 1.18071 5.39596C1.19859 5.34088 1.23157 5.29193 1.27591 5.25468C1.32025 5.21743 1.37416 5.19338 1.4315 5.18527L4.44442 4.74485C4.6429 4.71598 4.8314 4.6393 4.99368 4.52143C5.15596 4.40355 5.28716 4.24801 5.376 4.06819L6.72292 1.33877Z" fill="#011D67"/>
<path d="M20.7229 1.33877C20.7485 1.28712 20.788 1.24365 20.8369 1.21325C20.8859 1.18285 20.9424 1.16675 21 1.16675C21.0576 1.16675 21.1141 1.18285 21.1631 1.21325C21.212 1.24365 21.2515 1.28712 21.2771 1.33877L22.6246 4.06819C22.7134 4.24783 22.8444 4.40326 23.0064 4.52112C23.1685 4.63898 23.3567 4.71575 23.555 4.74485L26.5685 5.18585C26.6256 5.19413 26.6792 5.21821 26.7234 5.25539C26.7675 5.29256 26.8003 5.34134 26.8182 5.39621C26.836 5.45107 26.8382 5.50984 26.8243 5.56586C26.8105 5.62187 26.7813 5.67291 26.74 5.71319L24.5607 7.83535C24.4169 7.97541 24.3094 8.1483 24.2473 8.33914C24.1852 8.52997 24.1705 8.73304 24.2043 8.93085L24.7188 11.9292C24.7288 11.9863 24.7227 12.045 24.701 12.0988C24.6793 12.1525 24.6429 12.199 24.596 12.2331C24.5491 12.2672 24.4936 12.2874 24.4358 12.2914C24.3779 12.2954 24.3202 12.2831 24.269 12.2559L21.5752 10.8395C21.3977 10.7463 21.2002 10.6976 20.9997 10.6976C20.7992 10.6976 20.6017 10.7463 20.4243 10.8395L17.731 12.2559C17.6799 12.2829 17.6222 12.2951 17.5644 12.291C17.5067 12.2869 17.4513 12.2667 17.4045 12.2326C17.3577 12.1986 17.3214 12.1521 17.2997 12.0985C17.278 12.0448 17.2718 11.9862 17.2818 11.9292L17.7958 8.93144C17.8297 8.73353 17.815 8.53033 17.7529 8.33938C17.6908 8.14842 17.5832 7.97544 17.4393 7.83535L15.26 5.71377C15.2183 5.67354 15.1888 5.62242 15.1748 5.56623C15.1608 5.51004 15.1628 5.45105 15.1807 5.39596C15.1986 5.34088 15.2316 5.29193 15.2759 5.25468C15.3203 5.21743 15.3742 5.19338 15.4315 5.18527L18.4444 4.74485C18.6429 4.71598 18.8314 4.6393 18.9937 4.52143C19.156 4.40355 19.2872 4.24801 19.376 4.06819L20.7229 1.33877Z" fill="#011D67"/>
<path d="M34.7229 1.33877C34.7485 1.28712 34.788 1.24365 34.8369 1.21325C34.8859 1.18285 34.9424 1.16675 35 1.16675C35.0576 1.16675 35.1141 1.18285 35.1631 1.21325C35.212 1.24365 35.2515 1.28712 35.2771 1.33877L36.6246 4.06819C36.7134 4.24783 36.8444 4.40326 37.0064 4.52112C37.1685 4.63898 37.3567 4.71575 37.555 4.74485L40.5685 5.18585C40.6256 5.19413 40.6792 5.21821 40.7234 5.25539C40.7675 5.29256 40.8003 5.34134 40.8182 5.39621C40.836 5.45107 40.8382 5.50984 40.8243 5.56586C40.8105 5.62187 40.7813 5.67291 40.74 5.71319L38.5607 7.83535C38.4169 7.97541 38.3094 8.1483 38.2473 8.33914C38.1852 8.52997 38.1705 8.73304 38.2043 8.93085L38.7188 11.9292C38.7288 11.9863 38.7227 12.045 38.701 12.0988C38.6793 12.1525 38.6429 12.199 38.596 12.2331C38.5491 12.2672 38.4936 12.2874 38.4358 12.2914C38.3779 12.2954 38.3202 12.2831 38.269 12.2559L35.5752 10.8395C35.3977 10.7463 35.2002 10.6976 34.9997 10.6976C34.7992 10.6976 34.6017 10.7463 34.4243 10.8395L31.731 12.2559C31.6799 12.2829 31.6222 12.2951 31.5644 12.291C31.5067 12.2869 31.4513 12.2667 31.4045 12.2326C31.3577 12.1986 31.3214 12.1521 31.2997 12.0985C31.278 12.0448 31.2718 11.9862 31.2818 11.9292L31.7958 8.93144C31.8297 8.73353 31.815 8.53033 31.7529 8.33938C31.6908 8.14842 31.5832 7.97544 31.4393 7.83535L29.26 5.71377C29.2183 5.67354 29.1888 5.62242 29.1748 5.56623C29.1608 5.51004 29.1628 5.45105 29.1807 5.39596C29.1986 5.34088 29.2316 5.29193 29.2759 5.25468C29.3203 5.21743 29.3742 5.19338 29.4315 5.18527L32.4444 4.74485C32.6429 4.71598 32.8314 4.6393 32.9937 4.52143C33.156 4.40355 33.2872 4.24801 33.376 4.06819L34.7229 1.33877Z" fill="#011D67"/>
</svg>
