<svg width="20" height="20" viewBox="0 0 20 20" fill="none" xmlns="http://www.w3.org/2000/svg">
<path d="M10 0.400002C4.69802 0.400002 0.400024 4.698 0.400024 10C0.400024 15.302 4.69802 19.6 10 19.6C15.302 19.6 19.6 15.302 19.6 10C19.6 4.698 15.302 0.400002 10 0.400002ZM13.905 8.264C13.909 8.346 13.91 8.428 13.91 8.508C13.91 11.008 12.009 13.889 8.53102 13.889C7.50332 13.8907 6.49699 13.5955 5.63302 13.039C5.78002 13.057 5.93102 13.064 6.08402 13.064C6.97002 13.064 7.78503 12.763 8.43202 12.255C8.03774 12.2473 7.6557 12.1167 7.33914 11.8815C7.02258 11.6463 6.78727 11.3183 6.66602 10.943C6.94918 10.9968 7.24087 10.9856 7.51902 10.91C7.09107 10.8235 6.70622 10.5916 6.42973 10.2537C6.15324 9.91575 6.00213 9.49261 6.00202 9.056V9.033C6.25702 9.174 6.54902 9.26 6.85902 9.27C6.45782 9.00293 6.17381 8.59267 6.06507 8.12313C5.95633 7.6536 6.03108 7.16025 6.27402 6.744C6.74898 7.328 7.34128 7.80575 8.01259 8.14631C8.6839 8.48688 9.41925 8.68266 10.171 8.721C10.0754 8.31531 10.1166 7.88941 10.288 7.50951C10.4595 7.12961 10.7516 6.81699 11.1191 6.62027C11.4865 6.42354 11.9087 6.35372 12.3199 6.42167C12.7311 6.48962 13.1084 6.69153 13.393 6.996C13.8162 6.91228 14.222 6.75706 14.593 6.537C14.452 6.97514 14.1567 7.34718 13.762 7.584C14.1369 7.53885 14.5029 7.43808 14.848 7.285C14.5945 7.6649 14.2752 7.99644 13.905 8.264Z" fill="#22252B"/>
</svg>
