<svg width="316" height="52" viewBox="0 0 316 52" fill="none" xmlns="http://www.w3.org/2000/svg">
<g opacity="0.5">
<path d="M50.8009 15.0287C50.8009 15.0287 50.8009 0.729004 65.1006 0.729004H107.988C107.988 0.729004 107.988 15.0287 93.6881 15.0287H50.8009Z" fill="#22252B"/>
<path d="M50.8009 33.3001C50.8009 33.3001 50.8009 19.0298 65.0771 19.0298H86.5266C86.5266 19.0298 86.5266 33.3294 72.2269 33.3294L50.8009 33.3001Z" fill="#22252B"/>
<path d="M50.8009 51.5702C50.8009 51.5702 50.8009 37.2412 65.0771 37.2412H72.2269C72.2269 37.2412 72.2269 51.5409 57.9272 51.5409L50.8009 51.5702Z" fill="#22252B"/>
<path d="M45.9833 40.408V51.8172H0L29.6216 11.4092H4.19472V0H52.1579L22.6774 40.408H45.9833Z" fill="#22252B"/>
<path d="M132.95 22.5544H118.046V19.8871L129.525 3.36085H118.551V0.816988H132.651V3.40197L121.112 20.0105H132.95V22.5544ZM149.218 19.987V22.5544H135.829V0.816988H149.218V3.38435H138.69V9.32981H148.496V11.8972H138.69V20.0046L149.218 19.987ZM164.493 22.5544L155.04 3.75447V22.5544H152.397V0.816988H156.415L165.022 18.0659V0.816988H167.666V22.5544H164.493ZM187.687 17.0906C186.978 18.596 185.884 19.8871 184.515 20.833C183.513 21.4944 182.398 21.9664 181.225 22.2254C179.821 22.485 178.394 22.6031 176.966 22.5779H172.048V0.816988H176.907C178.487 0.775865 180.066 0.931774 181.607 1.28111C182.648 1.53879 183.641 1.96548 184.544 2.54423C185.919 3.46981 187.023 4.74545 187.74 6.23958C188.527 7.95128 188.91 9.82028 188.862 11.7033C188.893 13.5639 188.49 15.4061 187.687 17.0848V17.0906ZM185.091 7.37345C184.582 6.22815 183.741 5.26209 182.676 4.60046C181.93 4.13796 181.115 3.79873 180.261 3.59585C179.209 3.3717 178.135 3.2692 177.06 3.29035H174.904V20.081H177.06C178.166 20.0958 179.271 19.9934 180.355 19.7755C181.286 19.5759 182.166 19.1881 182.94 18.6358C183.921 17.9538 184.689 17.0089 185.155 15.9098C185.69 14.5593 185.941 13.1137 185.896 11.6622C185.936 10.191 185.66 8.72831 185.085 7.37345H185.091ZM124.737 33.8695V37.982H132.962V42.0945H124.737V51.4944H119.379V29.7394H133.708V33.8519L124.737 33.8695ZM149.018 42.259L156.204 51.5297H149.665L143.707 43.528H141.81V51.5238H136.458V29.7394H145.059C146.097 29.7293 147.135 29.806 148.161 29.9686C149.029 30.1169 149.858 30.4386 150.599 30.9144C151.347 31.3922 151.971 32.0405 152.42 32.8062C152.906 33.7066 153.139 34.7215 153.096 35.7436C153.162 37.1799 152.773 38.6004 151.985 39.8032C151.227 40.8607 150.218 41.7127 149.048 42.2825L149.018 42.259ZM147.256 34.9858C147.031 34.57 146.67 34.2443 146.234 34.0634C145.879 33.9109 145.502 33.8176 145.117 33.7873C144.706 33.7462 144.201 33.7285 143.59 33.7285H141.828V39.6035H143.355C143.988 39.6106 144.621 39.5634 145.247 39.4625C145.731 39.3863 146.187 39.1836 146.569 38.875C146.9 38.6137 147.163 38.2747 147.332 37.888C147.515 37.4083 147.599 36.8968 147.579 36.384C147.592 35.8944 147.487 35.4089 147.274 34.9681L147.256 34.9858ZM170.274 51.5297L168.952 47.1117H162.196L160.874 51.5297H155.499L162.707 29.7453H168.582L175.791 51.5297H170.274ZM165.574 35.9023L163.383 43.1167H167.771L165.58 35.8846L165.574 35.9023ZM194.361 51.5297V37.0773L190.484 46.3832H186.836L182.958 37.0773V51.5238H177.894V29.7394H184.086L188.786 40.4789L193.486 29.7394H199.684V51.5238L194.361 51.5297ZM218.613 47.4172V51.5297H204.137V29.7394H218.613V33.8519H209.484V37.6883H217.879V41.8007H209.484V47.3761L218.613 47.4172ZM244.375 51.5297H238.5L235.051 38.0525L231.709 51.5297H225.834L220.423 29.7453H225.98L228.918 44.3857L232.513 29.7453H237.836L241.244 44.3975L244.351 29.7453H249.756L244.346 51.5297H244.375ZM269.05 48.9682C267.209 50.9892 264.685 51.9997 261.477 51.9997C258.269 51.9997 255.745 50.9774 253.904 48.9329C252.071 46.8845 251.155 44.1233 251.155 40.6492C251.155 37.1752 252.071 34.4042 253.904 32.3362C255.737 30.2956 258.261 29.2773 261.477 29.2812C264.693 29.2851 267.217 30.2995 269.05 32.3244C270.891 34.3493 271.811 37.1262 271.811 40.6551C271.811 44.184 270.897 46.9629 269.067 48.9917L269.05 48.9682ZM265.883 37.3181C265.671 36.5126 265.315 35.7522 264.832 35.0739C264.43 34.5242 263.896 34.0838 263.281 33.7932C262.718 33.5383 262.107 33.4062 261.489 33.4054C260.847 33.3855 260.211 33.5235 259.635 33.8073C259.059 34.091 258.562 34.5119 258.187 35.0328C257.695 35.7118 257.334 36.477 257.124 37.2888C256.596 39.4841 256.596 41.7733 257.124 43.9686C257.339 44.7647 257.698 45.5152 258.181 46.1835C258.581 46.7422 259.117 47.1892 259.738 47.4818C260.303 47.7371 260.916 47.8693 261.536 47.8696C262.168 47.8685 262.793 47.726 263.363 47.4524C263.974 47.1565 264.5 46.7097 264.89 46.1541C265.367 45.4816 265.724 44.7325 265.948 43.9392C266.458 41.7577 266.458 39.4879 265.948 37.3064L265.883 37.3181ZM287.562 42.259L294.753 51.5297H288.232L282.274 43.528H280.377V51.5238H275.019V29.7394H283.626C284.664 29.7294 285.702 29.8061 286.728 29.9686C287.596 30.1171 288.425 30.4388 289.166 30.9144C289.916 31.3915 290.542 32.0399 290.993 32.8062C291.478 33.7067 291.712 34.7215 291.668 35.7436C291.734 37.1799 291.346 38.6004 290.558 39.8032C289.792 40.8645 288.772 41.7168 287.591 42.2825L287.562 42.259ZM285.799 34.9858C285.575 34.5697 285.214 34.2438 284.777 34.0634C284.422 33.9116 284.045 33.8183 283.661 33.7873C283.269 33.7481 282.76 33.7285 282.133 33.7285H280.371V39.6035H281.898C282.532 39.6106 283.165 39.5634 283.79 39.4625C284.275 39.3863 284.731 39.1836 285.112 38.875C285.444 38.6137 285.706 38.2747 285.876 37.888C286.058 37.4084 286.142 36.8968 286.122 36.384C286.135 35.8944 286.031 35.4089 285.817 34.9681L285.799 34.9858ZM315.033 51.5297H308.571L302.743 42.6702L301.697 44.1683V51.5297H296.374V29.7394H301.732V39.4155L308.553 29.7453H314.757L307.12 39.8561L315.057 51.5297H315.033Z" fill="#22252B"/>
</g>
</svg>
